# xmcd
#
# Track frame offsets:
# 150
# 3670
# 19085
# 38650
# 54687
# 72380
# 85907
# 104027
# 117662
# 133207
# 152490
# 166890
# 182782
# 199027
# 214697
# 228630
# 245447
# 264352
# 279892
#
# Disc length: 4087 seconds
#
#
# Revision: 1
# Processed by: cddbd v1.5.1PL2 Copyright (c) Steve Scherf et al.
# Submitted via: FreeRIP 2.945 
#
DISCID=100ff513
DTITLE=Pepe Moreno - Forró Risca Faca
DYEAR=2005
DGENRE=Country
TTITLE0=Risca Faca 01
TTITLE1=Risca Faca 02
TTITLE2=Risca Faca 03
TTITLE3=Risca Faca 04
TTITLE4=Risca Faca 05
TTITLE5=Risca Faca 06
TTITLE6=Risca Faca 07
TTITLE7=Risca Faca 08
TTITLE8=Risca Faca 09
TTITLE9=Risca Faca 10
TTITLE10=Risca Faca 11
TTITLE11=Risca Faca 12
TTITLE12=Risca Faca 13
TTITLE13=Risca Faca 14
TTITLE14=Risca Faca 15
TTITLE15=Risca Faca 16
TTITLE16=Risca Faca 17
TTITLE17=Risca Faca 18
TTITLE18=Risca Faca 19
EXTD=
EXTT0=
EXTT1=
EXTT2=
EXTT3=
EXTT4=
EXTT5=
EXTT6=
EXTT7=
EXTT8=
EXTT9=
EXTT10=
EXTT11=
EXTT12=
EXTT13=
EXTT14=
EXTT15=
EXTT16=
EXTT17=
EXTT18=
PLAYORDER=
